<svg width="606" height="66" viewBox="0 0 606 66" fill="none" xmlns="http://www.w3.org/2000/svg">
<path d="M58.4261 0.37262H63.8571L49.813 65.4979H44.3819L58.4261 0.37262ZM51.2942 0.37262H56.1767L42.1328 65.4979H37.2503L51.2942 0.37262ZM44.7111 0.37262H49.045L35.0009 65.4979H30.6671L44.7111 0.37262ZM38.6766 0.37262H42.4619L28.4178 65.4979H24.6325L38.6766 0.37262ZM33.1906 0.37262H36.4273L22.3834 65.4979H19.1465L33.1906 0.37262ZM28.2532 0.37262H30.9415L16.8973 65.4979H14.2093L28.2532 0.37262ZM23.8646 0.37262H26.0041L11.96 65.4979H9.82044L23.8646 0.37262ZM20.0793 0.37262H21.6701L7.62607 65.4979H6.03516L20.0793 0.37262ZM16.7876 0.37262H17.8299L3.78594 65.4979H2.74364L16.7876 0.37262ZM14.0446 0.37262H14.5384L0.549189 65.4979H0.0554199L14.0446 0.37262Z" fill="black"/>
<path d="M62.2144 0.37262H63.9848L59.4069 21.9634H57.6365L62.2144 0.37262ZM73.556 6.48769L71.571 15.8484H78.5634L79.4218 11.8315H88.6488L87.0571 19.3631H61.6103L65.0796 2.97285H90.5264L89.0785 9.78714H79.8506L80.5484 6.48769H73.556ZM59.2498 21.9634L59.5717 20.3853H88.6488L88.3274 21.9634H59.2498ZM63.4702 1.95073L63.8099 0.37262H92.9054L92.5654 1.95073H63.4702ZM88.56 19.3631L92.0292 2.97285H115.849L115.044 6.72076H100.452L99.9157 9.26719H114.025L113.239 13.015H99.1292L98.5744 15.6152H113.167L112.38 19.3631H88.56ZM86.1996 21.9634L86.5218 20.3853H113.971L113.65 21.9634H86.1996ZM90.4198 1.95073L90.7598 0.37262H118.228L117.888 1.95073H90.4198ZM141.414 9.42852L138.624 12.226L139.322 19.3631H130.095L129.612 12.9434H124.462L123.103 19.3631H113.875L117.345 2.97285H142.792L141.414 9.42852ZM111.515 21.9634L111.837 20.3853H140.915L140.592 21.9634H111.515ZM115.735 1.95073L116.075 0.37262H145.169L144.83 1.95073H115.735ZM131.543 9.42852L132.33 8.74716L132.813 6.48769H125.821L125.196 9.42852H131.543ZM148.318 19.3631L150.982 6.72076H143.49L144.294 2.97285H168.508L167.703 6.72076H160.209L157.545 19.3631H148.318ZM142.685 1.95073L143.025 0.37262H170.886L170.547 1.95073H142.685ZM138.464 21.9634L138.787 20.3853H166.63L166.308 21.9634H138.464ZM166.539 19.3631L170.008 2.97285H179.235L175.767 19.3631H166.539ZM168.398 1.95073L168.738 0.37262H181.614L181.274 1.95073H168.398ZM164.178 21.9634L164.5 20.3853H177.357L177.036 21.9634H164.178ZM177.269 19.3631L180.737 2.97285H204.557L203.752 6.72076H189.16L188.623 9.26719H202.733L201.946 13.015H187.837L186.496 19.3631H177.269ZM179.128 1.95073L179.468 0.37262H206.936L206.595 1.95073H179.128ZM174.908 21.9634L175.23 20.3853H202.68L202.357 21.9634H174.908ZM202.583 19.3631L206.052 2.97285H215.28L211.81 19.3631H202.583ZM204.443 1.95073L204.782 0.37262H217.658L217.318 1.95073H204.443ZM200.223 21.9634L200.544 20.3853H213.403L213.08 21.9634H200.223ZM213.312 19.3631L216.782 2.97285H240.602L239.797 6.72076H225.205L224.669 9.26719H238.778L237.991 13.015H223.881L223.327 15.6152H237.92L237.132 19.3631H213.312ZM210.952 21.9634L211.274 20.3853H238.724L238.403 21.9634H210.952ZM215.173 1.95073L215.512 0.37262H242.98L242.641 1.95073H215.173ZM238.628 19.3631L242.097 2.97285H265.631L267.133 4.89164L264.468 17.4444L262.161 19.3631H238.628ZM250.573 6.48769L248.588 15.8484H255.58L257.565 6.48769H250.573ZM240.487 1.95073L240.827 0.37262H269.923L269.583 1.95073H240.487ZM236.267 21.9634L236.589 20.3853H265.667L265.345 21.9634H236.267Z" fill="black"/>
<path d="M58.8711 21.8542H223.119L213.973 64.9998H49.7198L58.8711 21.8542Z" fill="black" stroke="black"/>
<path d="M69.5733 59.8489L74.9123 34.5154H59.8979L61.5106 27.0052H110.03L108.418 34.5154H93.4027L88.0635 59.8489H69.5733ZM106.085 59.8489L113.036 27.0052H164.028L157.077 59.8489H106.085ZM130.021 34.0482L126.044 52.8059H140.056L144.034 34.0482H130.021ZM209.682 48.2423H181.015L178.579 59.8489H160.087L167.04 27.0052H218.031L214.341 44.3972L209.682 48.2423ZM184.025 34.0482L182.521 41.1991H196.531L198.036 34.0482H184.025Z" fill="white"/>
<path d="M218.34 59.8446L225.289 27.0095H276.268L273.51 39.9784L269.856 43.4988L272.041 46.9837L269.319 59.8446H218.34ZM213.611 65.0536L214.255 61.8923H272.507L271.862 65.0536H213.611ZM222.066 24.9619L222.746 21.8005H281.034L280.352 24.9619H222.066ZM242.27 34.0508L241.018 39.9424H255.025L256.278 34.0508H242.27ZM239.549 46.9837L238.294 52.8034H252.302L253.556 46.9837H239.549ZM272.329 59.8446L279.279 27.0095H297.764L292.39 52.3364H320.549L318.974 59.8446H272.329ZM276.055 24.9619L276.735 21.8005H330.688L330.007 24.9619H276.055ZM267.6 65.0536L268.245 61.8923H322.161L321.517 65.0536H267.6ZM321.994 59.8446L328.945 27.0095H379.923L372.972 59.8446H354.486L357.21 46.9837H343.202L340.48 59.8446H321.994ZM317.265 65.0536L317.91 61.8923H376.161L375.516 65.0536H317.265ZM325.72 24.9619L326.401 21.8005H384.686L384.007 24.9619H325.72ZM345.925 34.0508L344.67 39.9424H358.678L359.933 34.0508H345.925ZM431.619 37.7868H413.133L413.921 34.0508H399.914L398.66 39.9424H431.154L426.961 59.8446H375.983L378.239 49.0314H396.726L395.936 52.8034H409.944L411.199 46.9837H378.706L382.932 27.0095H433.911L431.619 37.7868ZM371.254 65.0536L371.898 61.8923H430.149L429.505 65.0536H371.254ZM379.708 24.9619L380.388 21.8005H438.676L437.995 24.9619H379.708ZM444.982 59.8446L450.321 34.5178H435.309L436.922 27.0095H485.429L483.817 34.5178H468.806L463.468 59.8446H444.982ZM433.698 24.9619L434.379 21.8005H490.193L489.513 24.9619H433.698ZM425.244 65.0536L425.888 61.8923H481.667L481.023 65.0536H425.244ZM481.485 59.8446L488.434 27.0095H536.152L534.541 34.5178H505.308L504.233 39.6191H532.499L530.923 47.1273H502.657L501.546 52.3364H530.779L529.203 59.8446H481.485ZM476.755 65.0536L477.4 61.8923H532.391L531.746 65.0536H476.755ZM485.209 24.9619L485.892 21.8005H540.919L540.237 24.9619H485.209ZM587.368 39.9424L581.781 45.5466L583.177 59.8446H564.692L563.724 46.9837H553.407L550.684 59.8446H532.198L539.149 27.0095H590.128L587.368 39.9424ZM527.47 65.0536L528.115 61.8923H586.366L585.721 65.0536H527.47ZM535.925 24.9619L536.605 21.8005H594.892L594.211 24.9619H535.925ZM567.593 39.9424L569.17 38.5772L570.137 34.0508H556.13L554.876 39.9424H567.593ZM594.534 21.8005H598.082L588.911 65.0536H585.364L594.534 21.8005Z" fill="black"/>
<path d="M69.5733 59.8488L74.9123 34.5152H59.8979L61.5105 27.0051H110.03L108.418 34.5152H93.4027L88.0635 59.8488H69.5733ZM106.085 59.8488L113.036 27.0051H164.028L157.077 59.8488H106.085ZM130.021 34.0481L126.044 52.8057H140.056L144.034 34.0481H130.021ZM209.682 48.2421H181.015L178.579 59.8488H160.087L167.04 27.0051H218.031L214.341 44.3971L209.682 48.2421ZM184.025 34.0481L182.521 41.199H196.531L198.036 34.0481H184.025Z" fill="#F2AD01"/>
<path d="M218.34 59.8446L225.289 27.0095H276.268L273.51 39.9784L269.856 43.4988L272.041 46.9837L269.319 59.8446H218.34ZM213.611 65.0536L214.255 61.8923H272.507L271.862 65.0536H213.611ZM222.066 24.9619L222.746 21.8005H281.034L280.352 24.9619H222.066ZM242.27 34.0508L241.018 39.9424H255.025L256.278 34.0508H242.27ZM239.549 46.9837L238.294 52.8034H252.302L253.556 46.9837H239.549ZM272.329 59.8446L279.279 27.0095H297.764L292.39 52.3364H320.549L318.974 59.8446H272.329ZM276.055 24.9619L276.735 21.8005H330.688L330.007 24.9619H276.055ZM267.6 65.0536L268.245 61.8923H322.161L321.517 65.0536H267.6ZM321.994 59.8446L328.945 27.0095H379.923L372.972 59.8446H354.486L357.21 46.9837H343.202L340.48 59.8446H321.994ZM317.265 65.0536L317.91 61.8923H376.161L375.516 65.0536H317.265ZM325.72 24.9619L326.401 21.8005H384.686L384.007 24.9619H325.72ZM345.925 34.0508L344.67 39.9424H358.678L359.933 34.0508H345.925ZM431.619 37.7868H413.133L413.921 34.0508H399.914L398.66 39.9424H431.154L426.961 59.8446H375.983L378.239 49.0314H396.726L395.936 52.8034H409.944L411.199 46.9837H378.706L382.932 27.0095H433.911L431.619 37.7868ZM371.254 65.0536L371.898 61.8923H430.149L429.505 65.0536H371.254ZM379.708 24.9619L380.388 21.8005H438.676L437.995 24.9619H379.708ZM444.982 59.8446L450.321 34.5178H435.309L436.922 27.0095H485.429L483.817 34.5178H468.806L463.468 59.8446H444.982ZM433.698 24.9619L434.379 21.8005H490.193L489.513 24.9619H433.698ZM425.244 65.0536L425.888 61.8923H481.667L481.023 65.0536H425.244ZM481.485 59.8446L488.434 27.0095H536.152L534.541 34.5178H505.308L504.233 39.6191H532.499L530.923 47.1273H502.657L501.546 52.3364H530.779L529.203 59.8446H481.485ZM476.755 65.0536L477.4 61.8923H532.391L531.746 65.0536H476.755ZM485.209 24.9619L485.892 21.8005H540.919L540.237 24.9619H485.209ZM587.368 39.9424L581.781 45.5466L583.177 59.8446H564.692L563.724 46.9837H553.407L550.684 59.8446H532.198L539.149 27.0095H590.128L587.368 39.9424ZM527.47 65.0536L528.115 61.8923H586.366L585.721 65.0536H527.47ZM535.925 24.9619L536.605 21.8005H594.892L594.211 24.9619H535.925ZM567.593 39.9424L569.17 38.5772L570.137 34.0508H556.13L554.876 39.9424H567.593ZM594.534 21.8005H598.082L588.911 65.0536H585.364L594.534 21.8005Z" fill="black"/>
<mask id="mask0_26_1487" style="mask-type:luminance" maskUnits="userSpaceOnUse" x="265" y="0" width="341" height="22">
<path d="M605.084 0.408936H265.169V21.8204H605.084V0.408936Z" fill="white"/>
</mask>
<g mask="url(#mask0_26_1487)">
<path d="M274.054 21.8543H265.325L287.896 -84.6743H296.625L274.054 21.8543ZM285.515 21.8543H277.052L299.622 -84.6743H308.086L285.515 21.8543ZM296.889 21.8543H288.601L311.172 -84.6743H319.46L296.889 21.8543ZM308.703 21.8543H300.768L323.339 -84.6743H331.274L308.703 21.8543ZM319.901 21.8543H312.318L334.889 -84.6743H342.472L319.901 21.8543ZM331.539 21.8543H324.485L347.056 -84.6743H354.11L331.539 21.8543ZM343 21.8543H336.035L358.606 -84.6743H365.571L343 21.8543ZM354.726 21.8543H348.202L370.772 -84.6743H377.297L354.726 21.8543ZM366.541 21.8543H359.84L382.411 -84.6743H389.111L366.541 21.8543ZM377.561 21.8543H371.655L394.226 -84.6743H400.132L377.561 21.8543ZM389.288 21.8543H383.557L406.128 -84.6743H411.858L389.288 21.8543ZM400.661 21.8543H395.372L417.943 -84.6743H423.232L400.661 21.8543ZM412.212 21.8543H407.274L429.845 -84.6743H434.781L412.212 21.8543ZM423.585 21.8543H419.089L441.659 -84.6743H446.156L423.585 21.8543ZM435.399 21.8543H430.991L453.562 -84.6743H457.971L435.399 21.8543ZM447.125 21.8543H442.805L465.376 -84.6743H469.696L447.125 21.8543ZM458.234 21.8543H454.355L476.925 -84.6743H480.805L458.234 21.8543ZM470.049 21.8543H466.522L489.093 -84.6743H492.62L470.049 21.8543ZM481.246 21.8543H478.072L500.643 -84.6743H503.817L481.246 21.8543ZM493.06 21.8543H490.239L512.809 -84.6743H515.631L493.06 21.8543ZM504.346 21.8543H501.877L524.448 -84.6743H526.917L504.346 21.8543ZM516.072 21.8543H513.955L536.526 -84.6743H538.642L516.072 21.8543ZM527.887 21.8543H525.593L548.164 -84.6743H550.456L527.887 21.8543ZM539.083 21.8543H537.32L559.89 -84.6743H561.654L539.083 21.8543ZM550.633 21.8543H549.31L571.881 -84.6743H573.204L550.633 21.8543ZM562.094 21.8543H561.036L583.607 -84.6743H584.665L562.094 21.8543ZM573.556 21.8543H572.675L595.245 -84.6743H596.127L573.556 21.8543ZM585.019 21.8543H584.401L606.971 -84.6743H607.588L585.019 21.8543ZM597.362 21.8543H597.009L619.58 -84.6743H619.932L597.362 21.8543Z" fill="black"/>
<path d="M274.054 21.8543H265.325L287.896 -84.6743H296.625L274.054 21.8543ZM285.515 21.8543H277.052L299.622 -84.6743H308.086L285.515 21.8543ZM296.889 21.8543H288.601L311.172 -84.6743H319.46L296.889 21.8543ZM308.703 21.8543H300.768L323.339 -84.6743H331.274L308.703 21.8543ZM319.901 21.8543H312.318L334.889 -84.6743H342.472L319.901 21.8543ZM331.539 21.8543H324.485L347.056 -84.6743H354.11L331.539 21.8543ZM343 21.8543H336.035L358.606 -84.6743H365.571L343 21.8543ZM354.726 21.8543H348.202L370.772 -84.6743H377.297L354.726 21.8543ZM366.541 21.8543H359.84L382.411 -84.6743H389.111L366.541 21.8543ZM377.561 21.8543H371.655L394.226 -84.6743H400.132L377.561 21.8543ZM389.288 21.8543H383.557L406.128 -84.6743H411.858L389.288 21.8543ZM400.661 21.8543H395.372L417.943 -84.6743H423.232L400.661 21.8543ZM412.212 21.8543H407.274L429.845 -84.6743H434.781L412.212 21.8543ZM423.585 21.8543H419.089L441.659 -84.6743H446.156L423.585 21.8543ZM435.399 21.8543H430.991L453.562 -84.6743H457.971L435.399 21.8543ZM447.125 21.8543H442.805L465.376 -84.6743H469.696L447.125 21.8543ZM458.234 21.8543H454.355L476.925 -84.6743H480.805L458.234 21.8543ZM470.049 21.8543H466.522L489.093 -84.6743H492.62L470.049 21.8543ZM481.246 21.8543H478.072L500.643 -84.6743H503.817L481.246 21.8543ZM493.06 21.8543H490.239L512.809 -84.6743H515.631L493.06 21.8543ZM504.346 21.8543H501.877L524.448 -84.6743H526.917L504.346 21.8543ZM516.072 21.8543H513.955L536.526 -84.6743H538.642L516.072 21.8543ZM527.887 21.8543H525.593L548.164 -84.6743H550.456L527.887 21.8543ZM539.083 21.8543H537.32L559.89 -84.6743H561.654L539.083 21.8543ZM550.633 21.8543H549.31L571.881 -84.6743H573.204L550.633 21.8543ZM562.094 21.8543H561.036L583.607 -84.6743H584.665L562.094 21.8543ZM573.556 21.8543H572.675L595.245 -84.6743H596.127L573.556 21.8543ZM585.019 21.8543H584.401L606.971 -84.6743H607.588L585.019 21.8543ZM597.362 21.8543H597.009L619.58 -84.6743H619.932L597.362 21.8543Z" fill="black"/>
</g>
</svg>
