<svg width="5825" height="790" viewBox="0 0 5825 790" fill="none" xmlns="http://www.w3.org/2000/svg">
<path d="M29.2699 667.407L162.606 78.321C172.766 33.4344 212.654 1.56592 258.676 1.56592H5700.52C5763.45 1.56592 5810.24 59.7625 5796.72 121.22L5667.19 710.305C5657.26 755.475 5617.24 787.651 5570.99 787.651H125.34C62.1658 787.651 15.3237 729.022 29.2699 667.407Z" fill="#F2AD01" stroke="#F2AD01" stroke-width="3"/>
<path d="M678.206 94.0063H694.706L652.04 294.673H635.54L678.206 94.0063ZM783.91 150.84L765.41 237.84H830.576L838.576 200.506H924.576L909.743 270.506H672.576L704.91 118.173H942.076L928.576 181.506H842.576L849.076 150.84H783.91ZM650.576 294.673L653.576 280.006H924.576L921.576 294.673H650.576ZM689.91 108.673L693.076 94.0063H964.243L961.076 108.673H689.91ZM923.748 270.506L956.081 118.173H1178.08L1170.58 153.006H1034.58L1029.58 176.673H1161.08L1153.75 211.506H1022.25L1017.08 235.673H1153.08L1145.75 270.506H923.748ZM901.748 294.673L904.748 280.006H1160.58L1157.58 294.673H901.748ZM941.081 108.673L944.248 94.0063H1200.25L1197.08 108.673H941.081ZM1416.35 178.173L1390.35 204.173L1396.85 270.506H1310.85L1306.35 210.84H1258.35L1245.69 270.506H1159.69L1192.02 118.173H1429.19L1416.35 178.173ZM1137.69 294.673L1140.69 280.006H1411.69L1408.69 294.673H1137.69ZM1177.02 108.673L1180.19 94.0063H1451.35L1448.19 108.673H1177.02ZM1324.35 178.173L1331.69 171.84L1336.19 150.84H1271.02L1265.19 178.173H1324.35ZM1480.69 270.506L1505.52 153.006H1435.69L1443.19 118.173H1668.86L1661.36 153.006H1591.52L1566.69 270.506H1480.69ZM1428.19 108.673L1431.36 94.0063H1691.02L1687.86 108.673H1428.19ZM1388.86 294.673L1391.86 280.006H1651.36L1648.36 294.673H1388.86ZM1650.51 270.506L1682.84 118.173H1768.84L1736.51 270.506H1650.51ZM1667.84 108.673L1671.01 94.0063H1791.01L1787.84 108.673H1667.84ZM1628.51 294.673L1631.51 280.006H1751.34L1748.34 294.673H1628.51ZM1750.51 270.506L1782.84 118.173H2004.84L1997.34 153.006H1861.34L1856.34 176.673H1987.84L1980.51 211.506H1849.01L1836.51 270.506H1750.51ZM1767.84 108.673L1771.01 94.0063H2027.01L2023.84 108.673H1767.84ZM1728.51 294.673L1731.51 280.006H1987.34L1984.34 294.673H1728.51ZM1986.44 270.506L2018.78 118.173H2104.78L2072.44 270.506H1986.44ZM2003.78 108.673L2006.94 94.0063H2126.94L2123.78 108.673H2003.78ZM1964.44 294.673L1967.44 280.006H2087.28L2084.28 294.673H1964.44ZM2086.44 270.506L2118.78 118.173H2340.78L2333.28 153.006H2197.28L2192.28 176.673H2323.78L2316.44 211.506H2184.94L2179.78 235.673H2315.78L2308.44 270.506H2086.44ZM2064.44 294.673L2067.44 280.006H2323.28L2320.28 294.673H2064.44ZM2103.78 108.673L2106.94 94.0063H2362.94L2359.78 108.673H2103.78ZM2322.38 270.506L2354.71 118.173H2574.05L2588.05 136.006L2563.21 252.673L2541.71 270.506H2322.38ZM2433.71 150.84L2415.21 237.84H2480.38L2498.88 150.84H2433.71ZM2339.71 108.673L2342.88 94.0063H2614.05L2610.88 108.673H2339.71ZM2300.38 294.673L2303.38 280.006H2574.38L2571.38 294.673H2300.38Z" fill="black"/>
<path d="M645.029 94.0581H695.297L565.31 695.159H515.042L645.029 94.0581ZM579.019 94.0581H624.21L494.225 695.159H449.034L579.019 94.0581ZM518.088 94.0581H558.202L428.215 695.159H388.103L518.088 94.0581ZM462.236 94.0581H497.271L367.284 695.159H332.249L462.236 94.0581ZM411.459 94.0581H441.417L311.432 695.159H281.473L411.459 94.0581ZM365.761 94.0581H390.642L260.655 695.159H235.775L365.761 94.0581ZM325.141 94.0581H344.944L214.957 695.159H195.154L325.141 94.0581ZM290.106 94.0581H304.83L174.844 695.159H160.119L290.106 94.0581ZM259.64 94.0581H269.287L139.301 695.159H129.654L259.64 94.0581ZM234.252 94.0581H238.822L109.343 695.159H104.773L234.252 94.0581Z" fill="black"/>
<path d="M2177.84 293.659L2092.59 694.659H561.756L647.046 293.659H2177.84Z" fill="black" stroke="black"/>
<path d="M746.791 646.786L796.553 411.332H656.617L671.646 341.532H1123.85L1108.82 411.332H968.884L919.123 646.786H746.791ZM1087.08 646.786L1151.87 341.532H1627.11L1562.32 646.786H1087.08ZM1310.17 406.991L1273.1 581.327H1403.69L1440.76 406.991H1310.17ZM2052.61 538.912H1785.43L1762.72 646.786H1590.38L1655.18 341.532H2130.42L2096.03 503.176L2052.61 538.912ZM1813.48 406.991L1799.46 473.452H1930.04L1944.06 406.991H1813.48Z" fill="white"/>
<path d="M2133.3 646.745L2198.07 341.572H2673.19L2647.48 462.106L2613.43 494.826L2633.79 527.214L2608.42 646.745H2133.3ZM2089.22 695.159L2095.23 665.777H2638.13L2632.12 695.159H2089.22ZM2168.02 322.541L2174.36 293.159H2717.6L2711.26 322.541H2168.02ZM2356.33 407.015L2344.65 461.772H2475.2L2486.88 407.015H2356.33ZM2330.96 527.214L2319.27 581.304H2449.82L2461.51 527.214H2330.96ZM2636.47 646.745L2701.25 341.572H2873.53L2823.45 576.963H3085.89L3071.2 646.745H2636.47ZM2671.2 322.541L2677.54 293.159H3180.38L3174.03 322.541H2671.2ZM2592.4 695.159L2598.41 665.777H3100.91L3094.9 695.159H2592.4ZM3099.35 646.745L3164.13 341.572H3639.25L3574.47 646.745H3402.18L3427.57 527.214H3297.01L3271.64 646.745H3099.35ZM3055.28 695.159L3061.29 665.777H3604.19L3598.18 695.159H3055.28ZM3134.08 322.541L3140.42 293.159H3683.65L3677.31 322.541H3134.08ZM3322.39 407.015L3310.7 461.772H3441.25L3452.94 407.015H3322.39ZM4121.06 441.738H3948.77L3956.11 407.015H3825.57L3813.88 461.772H4116.72L4077.65 646.745H3602.53L3623.56 546.246H3795.85L3788.5 581.304H3919.05L3930.74 527.214H3627.91L3667.3 341.572H4142.42L4121.06 441.738ZM3558.45 695.159L3564.46 665.777H4107.36L4101.35 695.159H3558.45ZM3637.25 322.541L3643.59 293.159H4186.83L4180.48 322.541H3637.25ZM4245.6 646.745L4295.35 411.355H4155.45L4170.48 341.572H4622.57L4607.54 411.355H4467.64L4417.89 646.745H4245.6ZM4140.43 322.541L4146.78 293.159H4666.97L4660.63 322.541H4140.43ZM4061.64 695.159L4067.65 665.777H4587.51L4581.5 695.159H4061.64ZM4585.81 646.745L4650.57 341.572H5095.31L5080.29 411.355H4807.84L4797.82 458.767H5061.26L5046.57 528.549H4783.13L4772.78 576.963H5045.23L5030.54 646.745H4585.81ZM4541.73 695.159L4547.74 665.777H5060.25L5054.24 695.159H4541.73ZM4620.52 322.541L4626.88 293.159H5139.73L5133.38 322.541H4620.52ZM5572.64 461.772L5520.56 513.858L5533.58 646.745H5361.29L5352.28 527.214H5256.12L5230.75 646.745H5058.46L5123.24 341.572H5598.36L5572.64 461.772ZM5014.39 695.159L5020.4 665.777H5563.3L5557.29 695.159H5014.39ZM5093.19 322.541L5099.53 293.159H5642.76L5636.42 322.541H5093.19ZM5388.34 461.772L5403.03 449.084L5412.05 407.015H5281.5L5269.81 461.772H5388.34ZM5639.43 293.159H5672.49L5587.02 695.159H5553.96L5639.43 293.159Z" fill="black"/>
<path d="M746.791 646.785L796.553 411.331H656.617L671.646 341.531H1123.85L1108.82 411.331H968.884L919.123 646.785H746.791ZM1087.08 646.785L1151.87 341.531H1627.11L1562.32 646.785H1087.08ZM1310.17 406.99L1273.1 581.326H1403.69L1440.76 406.99H1310.17ZM2052.61 538.911H1785.43L1762.72 646.785H1590.38L1655.18 341.531H2130.42L2096.03 503.175L2052.61 538.911ZM1813.48 406.99L1799.46 473.451H1930.04L1944.06 406.99H1813.48Z" fill="#F2AD01"/>
<path d="M2133.3 646.745L2198.07 341.572H2673.19L2647.48 462.106L2613.43 494.826L2633.79 527.214L2608.42 646.745H2133.3ZM2089.22 695.159L2095.23 665.777H2638.13L2632.12 695.159H2089.22ZM2168.02 322.541L2174.36 293.159H2717.6L2711.26 322.541H2168.02ZM2356.33 407.015L2344.65 461.772H2475.2L2486.88 407.015H2356.33ZM2330.96 527.214L2319.27 581.304H2449.82L2461.51 527.214H2330.96ZM2636.47 646.745L2701.25 341.572H2873.53L2823.45 576.963H3085.89L3071.2 646.745H2636.47ZM2671.2 322.541L2677.54 293.159H3180.38L3174.03 322.541H2671.2ZM2592.4 695.159L2598.41 665.777H3100.91L3094.9 695.159H2592.4ZM3099.35 646.745L3164.13 341.572H3639.25L3574.47 646.745H3402.18L3427.57 527.214H3297.01L3271.64 646.745H3099.35ZM3055.28 695.159L3061.29 665.777H3604.19L3598.18 695.159H3055.28ZM3134.08 322.541L3140.42 293.159H3683.65L3677.31 322.541H3134.08ZM3322.39 407.015L3310.7 461.772H3441.25L3452.94 407.015H3322.39ZM4121.06 441.738H3948.77L3956.11 407.015H3825.57L3813.88 461.772H4116.72L4077.65 646.745H3602.53L3623.56 546.246H3795.85L3788.5 581.304H3919.05L3930.74 527.214H3627.91L3667.3 341.572H4142.42L4121.06 441.738ZM3558.45 695.159L3564.46 665.777H4107.36L4101.35 695.159H3558.45ZM3637.25 322.541L3643.59 293.159H4186.83L4180.48 322.541H3637.25ZM4245.6 646.745L4295.35 411.355H4155.45L4170.48 341.572H4622.57L4607.54 411.355H4467.64L4417.89 646.745H4245.6ZM4140.43 322.541L4146.78 293.159H4666.97L4660.63 322.541H4140.43ZM4061.64 695.159L4067.65 665.777H4587.51L4581.5 695.159H4061.64ZM4585.81 646.745L4650.57 341.572H5095.31L5080.29 411.355H4807.84L4797.82 458.767H5061.26L5046.57 528.549H4783.13L4772.78 576.963H5045.23L5030.54 646.745H4585.81ZM4541.73 695.159L4547.74 665.777H5060.25L5054.24 695.159H4541.73ZM4620.52 322.541L4626.88 293.159H5139.73L5133.38 322.541H4620.52ZM5572.64 461.772L5520.56 513.858L5533.58 646.745H5361.29L5352.28 527.214H5256.12L5230.75 646.745H5058.46L5123.24 341.572H5598.36L5572.64 461.772ZM5014.39 695.159L5020.4 665.777H5563.3L5557.29 695.159H5014.39ZM5093.19 322.541L5099.53 293.159H5642.76L5636.42 322.541H5093.19ZM5388.34 461.772L5403.03 449.084L5412.05 407.015H5281.5L5269.81 461.772H5388.34ZM5639.43 293.159H5672.49L5587.02 695.159H5553.96L5639.43 293.159Z" fill="black"/>
<g clip-path="url(#clip0_55_628)">
<path d="M2652.55 293.659H2571.2L2781.56 -696.43H2862.91L2652.55 293.659ZM2759.37 293.659H2680.49L2890.85 -696.43H2969.73L2759.37 293.659ZM2865.37 293.659H2788.13L2998.49 -696.43H3075.73L2865.37 293.659ZM2975.48 293.659H2901.53L3111.89 -696.43H3185.84L2975.48 293.659ZM3079.84 293.659H3009.17L3219.53 -696.43H3290.2L3079.84 293.659ZM3188.31 293.659H3122.57L3332.93 -696.43H3398.67L3188.31 293.659ZM3295.13 293.659H3230.21L3440.57 -696.43H3505.49L3295.13 293.659ZM3404.42 293.659H3343.61L3553.97 -696.43H3614.78L3404.42 293.659ZM3514.53 293.659H3452.08L3662.44 -696.43H3724.89L3514.53 293.659ZM3617.24 293.659H3562.19L3772.55 -696.43H3827.6L3617.24 293.659ZM3726.53 293.659H3673.12L3883.48 -696.43H3936.89L3726.53 293.659ZM3832.53 293.659H3783.23L3993.59 -696.43H4042.89L3832.53 293.659ZM3940.18 293.659H3894.16L4104.52 -696.43H4150.53L3940.18 293.659ZM4046.18 293.659H4004.27L4214.63 -696.43H4256.54L4046.18 293.659ZM4156.29 293.659H4115.2L4325.56 -696.43H4366.65L4156.29 293.659ZM4265.57 293.659H4225.31L4435.67 -696.43H4475.93L4265.57 293.659ZM4369.11 293.659H4332.96L4543.31 -696.43H4579.47L4369.11 293.659ZM4479.22 293.659H4446.35L4656.71 -696.43H4689.58L4479.22 293.659ZM4583.58 293.659H4554L4764.36 -696.43H4793.94L4583.58 293.659ZM4693.69 293.659H4667.39L4877.75 -696.43H4904.05L4693.69 293.659ZM4798.87 293.659H4775.86L4986.22 -696.43H5009.23L4798.87 293.659ZM4908.16 293.659H4888.43L5098.79 -696.43H5118.51L4908.16 293.659ZM5018.27 293.659H4996.9L5207.26 -696.43H5228.62L5018.27 293.659ZM5122.62 293.659H5106.19L5316.55 -696.43H5332.98L5122.62 293.659ZM5230.27 293.659H5217.94L5428.3 -696.43H5440.63L5230.27 293.659ZM5337.09 293.659H5327.23L5537.59 -696.43H5547.45L5337.09 293.659ZM5443.91 293.659H5435.7L5646.05 -696.43H5654.27L5443.91 293.659ZM5550.74 293.659H5544.98L5755.34 -696.43H5761.09L5550.74 293.659ZM5665.78 293.659H5662.49L5872.85 -696.43H5876.14L5665.78 293.659Z" fill="black"/>
</g>
<defs>
<clipPath id="clip0_55_628">
<rect width="3168" height="199" fill="white" transform="translate(2569.75 94.3433)"/>
</clipPath>
</defs>
</svg>
