<svg width="4244" height="1122" viewBox="0 0 4244 1122" fill="none" xmlns="http://www.w3.org/2000/svg">
<path d="M28.1347 1000.35L228.818 79.8787C238.684 34.627 278.743 2.36108 325.057 2.36108H4120.4C4183.08 2.36108 4229.82 60.1284 4216.73 121.426L4020.23 1041.9C4010.52 1087.35 3970.37 1119.84 3923.9 1119.84H124.374C61.5206 1119.84 14.7458 1061.76 28.1347 1000.35Z" fill="#F2AD01" stroke="#F2AD01" stroke-width="3"/>
<g clip-path="url(#clip0_4_61)">
<path d="M2056.79 647.743H2021.73L2157.5 8.23267H2192.55L2056.79 647.743ZM2125.73 647.743H2074.82L2210.58 8.23267H2261.49L2125.73 647.743ZM2194.14 647.743H2144.29L2280.05 8.23267H2329.9L2194.14 647.743ZM2265.2 647.743H2217.47L2353.23 8.23267H2400.96L2265.2 647.743ZM2332.55 647.743H2286.94L2422.71 8.23267H2468.31L2332.55 647.743ZM2402.55 647.743H2360.13L2495.89 8.23267H2538.32L2402.55 647.743ZM2471.49 647.743H2429.6L2565.36 8.23267H2607.26L2471.49 647.743ZM2542.03 647.743H2502.78L2638.55 8.23267H2677.79L2542.03 647.743ZM2613.09 647.743H2572.79L2708.55 8.23267H2748.85L2613.09 647.743ZM2679.38 647.743H2643.85L2779.61 8.23267H2815.14L2679.38 647.743ZM2749.91 647.743H2715.44L2851.2 8.23267H2885.67L2749.91 647.743ZM2818.32 647.743H2786.51L2922.27 8.23267H2954.09L2818.32 647.743ZM2887.8 647.743H2858.1L2993.86 8.23267H3023.56L2887.8 647.743ZM2956.21 647.743H2929.16L3064.92 8.23267H3091.97L2956.21 647.743ZM3027.27 647.743H3000.75L3136.52 8.23267H3163.03L3027.27 647.743ZM3097.8 647.743H3071.82L3207.58 8.23267H3233.56L3097.8 647.743ZM3164.62 647.743H3141.29L3277.05 8.23267H3300.38L3164.62 647.743ZM3235.68 647.743H3214.47L3350.23 8.23267H3371.45L3235.68 647.743ZM3303.04 647.743H3283.94L3419.71 8.23267H3438.8L3303.04 647.743ZM3374.1 647.743H3357.13L3492.89 8.23267H3509.86L3374.1 647.743ZM3441.98 647.743H3427.13L3562.89 8.23267H3577.74L3441.98 647.743ZM3512.51 647.743H3499.78L3635.55 8.23267H3648.27L3512.51 647.743ZM3583.57 647.743H3569.79L3705.55 8.23267H3719.34L3583.57 647.743ZM3650.92 647.743H3640.32L3776.08 8.23267H3786.69L3650.92 647.743ZM3720.4 647.743H3712.44L3848.2 8.23267H3856.16L3720.4 647.743ZM3789.34 647.743H3782.97L3918.74 8.23267H3925.1L3789.34 647.743ZM3858.28 647.743H3852.98L3988.74 8.23267H3994.04L3858.28 647.743ZM3927.22 647.743H3923.51L4059.27 8.23267H4062.98L3927.22 647.743ZM4001.46 647.743H3999.34L4135.11 8.23267H4137.23L4001.46 647.743Z" fill="black"/>
</g>
<path d="M479.729 645.791H512.729L427.396 1047.12H394.396L479.729 645.791ZM436.396 645.791H466.063L380.729 1047.12H351.063L436.396 645.791ZM396.396 645.791H422.729L337.396 1047.12H311.062L396.396 645.791ZM359.729 645.791H382.729L297.396 1047.12H274.396L359.729 645.791ZM326.396 645.791H346.063L260.729 1047.12H241.063L326.396 645.791ZM296.396 645.791H312.729L227.396 1047.12H211.062L296.396 645.791ZM269.729 645.791H282.729L197.396 1047.12H184.396L269.729 645.791ZM246.729 645.791H256.396L171.063 1047.12H161.396L246.729 645.791ZM226.729 645.791H233.063L147.729 1047.12H141.396L226.729 645.791ZM210.062 645.791H213.063L128.062 1047.12H125.062L210.062 645.791ZM468.203 998.791L532.87 694.124H1007.2L981.536 814.457L947.536 847.124L967.87 879.457L942.536 998.791H468.203ZM424.203 1047.12L430.203 1017.79H972.203L966.203 1047.12H424.203ZM502.87 675.124L509.203 645.791H1051.54L1045.2 675.124H502.87ZM690.87 759.457L679.203 814.124H809.536L821.203 759.457H690.87ZM665.536 879.457L653.87 933.457H784.203L795.87 879.457H665.536ZM970.547 998.791L1035.21 694.124H1207.21L1157.21 929.124H1419.21L1404.55 998.791H970.547ZM1005.21 675.124L1011.55 645.791H1513.55L1507.21 675.124H1005.21ZM926.547 1047.12L932.547 1017.79H1434.21L1428.21 1047.12H926.547ZM1432.66 998.791L1497.32 694.124H1971.66L1906.99 998.791H1734.99L1760.32 879.457H1629.99L1604.66 998.791H1432.66ZM1388.66 1047.12L1394.66 1017.79H1936.66L1930.66 1047.12H1388.66ZM1467.32 675.124L1473.66 645.791H2015.99L2009.66 675.124H1467.32ZM1655.32 759.457L1643.66 814.124H1773.99L1785.66 759.457H1655.32ZM2452.67 794.124H2280.67L2288 759.457H2157.67L2146 814.124H2448.33L2409.33 998.791H1935L1956 898.457H2128L2120.67 933.457H2251L2262.67 879.457H1960.33L1999.67 694.124H2474L2452.67 794.124ZM1891 1047.12L1897 1017.79H2439L2433 1047.12H1891ZM1969.67 675.124L1976 645.791H2518.33L2512 675.124H1969.67ZM2577.01 998.791L2626.68 763.791H2487.01L2502.01 694.124H2953.34L2938.34 763.791H2798.68L2749.01 998.791H2577.01ZM2472.01 675.124L2478.34 645.791H2997.68L2991.34 675.124H2472.01ZM2393.34 1047.12L2399.34 1017.79H2918.34L2912.34 1047.12H2393.34ZM2916.64 998.791L2981.31 694.124H3425.31L3410.31 763.791H3138.31L3128.31 811.124H3391.31L3376.64 880.791H3113.64L3103.31 929.124H3375.31L3360.64 998.791H2916.64ZM2872.64 1047.12L2878.64 1017.79H3390.31L3384.31 1047.12H2872.64ZM2951.31 675.124L2957.64 645.791H3469.64L3463.31 675.124H2951.31ZM3901.85 814.124L3849.85 866.124L3862.85 998.791H3690.85L3681.85 879.457H3585.85L3560.52 998.791H3388.52L3453.18 694.124H3927.52L3901.85 814.124ZM3344.52 1047.12L3350.52 1017.79H3892.52L3886.52 1047.12H3344.52ZM3423.18 675.124L3429.52 645.791H3971.85L3965.52 675.124H3423.18ZM3717.85 814.124L3732.52 801.457L3741.52 759.457H3611.18L3599.52 814.124H3717.85ZM3968.53 645.791H4001.53L3916.19 1047.12H3883.19L3968.53 645.791Z" fill="black"/>
<path d="M2119.73 244.506L2034.47 645.506H503.645L588.935 244.506H2119.73Z" fill="black" stroke="black"/>
<path d="M688.68 597.633L738.441 362.179H598.506L613.535 292.379H1065.74L1050.71 362.179H910.773L861.011 597.633H688.68ZM1028.96 597.633L1093.76 292.379H1569L1504.21 597.633H1028.96ZM1252.06 357.838L1214.99 532.174H1345.57L1382.65 357.838H1252.06ZM1994.5 489.759H1727.32L1704.6 597.633H1532.27L1597.07 292.379H2072.31L2037.92 454.023L1994.5 489.759ZM1755.37 357.838L1741.34 424.299H1871.93L1885.95 357.838H1755.37Z" fill="#F2AD01"/>
<path d="M565.451 244.006H598.506L513.031 646.006H479.976L565.451 244.006ZM522.046 244.006H551.762L466.286 646.006H436.571L522.046 244.006ZM481.979 244.006H508.356L422.881 646.006H396.505L481.979 244.006ZM445.251 244.006H468.29L382.815 646.006H359.777L445.251 244.006ZM411.863 244.006H431.563L346.087 646.006H326.388L411.863 244.006ZM381.813 244.006H398.173L312.699 646.006H296.338L381.813 244.006ZM355.102 244.006H368.123L282.649 646.006H269.627L355.102 244.006ZM332.064 244.006H341.747L256.272 646.006H246.589L332.064 244.006ZM312.03 244.006H318.375L232.9 646.006H226.556L312.03 244.006ZM295.337 244.006H298.342L213.2 646.006H210.195L295.337 244.006Z" fill="black"/>
<path d="M597.087 95.1816H630.142L544.668 497.182H511.613L597.087 95.1816ZM553.683 95.1816H583.399L497.923 497.182H468.208L553.683 95.1816ZM513.616 95.1816H539.993L454.518 497.182H428.141L513.616 95.1816ZM476.888 95.1816H499.926L414.452 497.182H391.413L476.888 95.1816ZM443.5 95.1816H463.199L377.724 497.182H358.025L443.5 95.1816ZM413.45 95.1816H429.81L344.335 497.182H327.975L413.45 95.1816ZM386.739 95.1816H399.76L314.286 497.182H301.264L386.739 95.1816ZM363.7 95.1816H373.383L287.908 497.182H278.226L363.7 95.1816ZM343.667 95.1816H350.012L264.536 497.182H258.192L343.667 95.1816ZM326.973 95.1816H329.978L244.837 497.182H241.832L326.973 95.1816Z" fill="black"/>
<path d="M699.284 139.929L684.718 208.428H736.027L742.326 179.034H810.037L798.359 234.149H611.626L637.084 114.209H823.816L813.187 164.074H745.475L750.593 139.929H699.284ZM594.305 253.176L596.667 241.629H810.037L807.675 253.176H594.305ZM625.274 106.729L627.767 95.1816H841.269L838.776 106.729H625.274ZM809.386 234.149L834.843 114.209H1009.63L1003.73 141.635H896.65L892.713 160.269H996.249L990.476 187.695H886.94L882.871 206.722H989.951L984.177 234.149H809.386ZM792.065 253.176L794.427 241.629H995.856L993.494 253.176H792.065ZM823.033 106.729L825.527 95.1816H1027.09L1024.59 106.729H823.033ZM1197.24 161.45L1176.77 181.921L1181.88 234.149H1114.17L1110.63 187.17H1072.83L1062.86 234.149H995.151L1020.61 114.209H1207.34L1197.24 161.45ZM977.829 253.176L980.191 241.629H1193.56L1191.2 253.176H977.829ZM1008.8 106.729L1011.29 95.1816H1224.79L1222.3 106.729H1008.8ZM1124.8 161.45L1130.57 156.463L1134.12 139.929H1082.81L1078.22 161.45H1124.8ZM1247.89 234.149L1267.45 141.635H1212.46L1218.37 114.209H1396.05L1390.14 141.635H1335.16L1315.6 234.149H1247.89ZM1206.56 106.729L1209.05 95.1816H1413.5L1411 106.729H1206.56ZM1175.59 253.176L1177.95 241.629H1382.27L1379.9 253.176H1175.59ZM1381.6 234.149L1407.05 114.209H1474.77L1449.31 234.149H1381.6ZM1395.24 106.729L1397.74 95.1816H1492.22L1489.72 106.729H1395.24ZM1364.27 253.176L1366.64 241.629H1460.99L1458.62 253.176H1364.27ZM1460.33 234.149L1485.79 114.209H1660.58L1654.67 141.635H1547.59L1543.66 160.269H1647.19L1641.42 187.695H1537.88L1528.04 234.149H1460.33ZM1473.98 106.729L1476.47 95.1816H1678.03L1675.54 106.729H1473.98ZM1443.01 253.176L1445.37 241.629H1646.8L1644.44 253.176H1443.01ZM1646.1 234.149L1671.55 114.209H1739.26L1713.81 234.149H1646.1ZM1659.74 106.729L1662.24 95.1816H1756.72L1754.22 106.729H1659.74ZM1628.77 253.176L1631.14 241.629H1725.48L1723.12 253.176H1628.77ZM1724.83 234.149L1750.28 114.209H1925.08L1919.17 141.635H1812.09L1808.15 160.269H1911.69L1905.92 187.695H1802.38L1798.31 206.722H1905.39L1899.62 234.149H1724.83ZM1707.51 253.176L1709.87 241.629H1911.3L1908.94 253.176H1707.51ZM1738.47 106.729L1740.97 95.1816H1942.53L1940.04 106.729H1738.47ZM1910.6 234.149L1936.05 114.209H2108.74L2119.76 128.25L2100.22 220.107L2083.29 234.149H1910.6ZM1998.25 139.929L1983.69 208.428H2035L2049.57 139.929H1998.25ZM1924.24 106.729L1926.74 95.1816H2140.24L2137.75 106.729H1924.24ZM1893.28 253.176L1895.64 241.629H2109.01L2106.65 253.176H1893.28ZM2138.93 95.1816H2151.92L2118.32 253.176H2105.33L2138.93 95.1816Z" fill="black"/>
<defs>
<clipPath id="clip0_4_61">
<rect width="2133" height="552" fill="white" transform="translate(2004.48 95.3215)"/>
</clipPath>
</defs>
</svg>
