<svg width="2078" height="282" viewBox="0 0 2078 282" fill="none" xmlns="http://www.w3.org/2000/svg">
<path d="M7.66501 257.645L62.2996 16.2665C64.2078 7.83606 71.6994 1.85059 80.3432 1.85059H2052.83C2064.65 1.85059 2073.43 12.7809 2070.9 24.3236L2017.82 265.702C2015.95 274.186 2008.44 280.229 1999.75 280.229H25.7086C13.8434 280.229 5.04567 269.218 7.66501 257.645Z" fill="black" stroke="black" stroke-width="3"/>
<path d="M643.935 240.707H627.49L670.015 40.707H686.46L643.935 240.707ZM621.841 240.707H605.895L648.42 40.707H664.367L621.841 240.707ZM600.081 240.707H584.466L626.991 40.707H642.606L600.081 240.707ZM577.157 240.707H562.207L604.733 40.707H619.683L577.157 240.707ZM555.397 240.707H541.111L583.636 40.707H597.921L555.397 240.707ZM532.473 240.707H519.184L561.709 40.707H574.998L532.473 240.707ZM510.712 240.707H497.59L540.114 40.707H553.237L510.712 240.707ZM487.788 240.707H475.496L518.022 40.707H530.314L487.788 240.707ZM465.861 240.707H453.237L495.762 40.707H508.387L465.861 240.707ZM443.603 240.707H432.473L474.998 40.707H486.128L443.603 240.707ZM421.177 240.707H410.38L452.905 40.707H463.703L421.177 240.707ZM398.919 240.707H388.952L431.476 40.707H441.443L398.919 240.707ZM376.493 240.707H367.19L409.716 40.707H419.018L376.493 240.707ZM354.234 240.707H345.762L388.287 40.707H396.759L354.234 240.707ZM331.808 240.707H323.503L366.028 40.707H374.334L331.808 240.707ZM309.549 240.707H301.41L343.935 40.707H352.075L309.549 240.707ZM287.789 240.707H280.479L323.005 40.707H330.313L287.789 240.707ZM264.865 240.707H258.221L300.746 40.707H307.39L264.865 240.707ZM243.104 240.707H237.124L279.649 40.707H285.629L243.104 240.707ZM220.18 240.707H214.865L257.39 40.707H262.706L220.18 240.707ZM198.253 240.707H193.603L236.127 40.707H240.779L198.253 240.707ZM175.496 240.707H171.51L214.035 40.707H218.022L175.496 240.707ZM153.569 240.707H149.251L191.775 40.707H196.095L153.569 240.707ZM131.476 240.707H128.154L170.679 40.707H174.001L131.476 240.707ZM108.885 240.707H106.393L148.918 40.707H151.41L108.885 240.707ZM86.792 240.707H84.7986L127.324 40.707H129.317L86.792 240.707ZM64.8651 240.707H63.2039L105.729 40.707H107.39L64.8651 240.707ZM42.772 240.707H41.6093L84.1341 40.707H85.2969L42.772 240.707ZM922.278 114.627H836.564L840.219 97.3516H775.268L769.454 124.594H920.118L900.683 216.62H664.305L674.769 166.621H760.483L756.83 184.063H821.78L827.594 157.153H676.929L696.531 64.7934H932.91L922.278 114.627ZM642.377 240.707L645.367 226.089H915.468L912.477 240.707H642.377ZM681.58 55.325L684.737 40.707H955.002L951.846 55.325H681.58ZM914.642 216.62L946.868 64.7934H1032.58L1000.36 216.62H914.642ZM931.918 55.325L935.073 40.707H1054.68L1051.52 55.325H931.918ZM892.715 240.707L895.705 226.089H1015.14L1012.15 240.707H892.715ZM1143.05 157.153L1149.86 124.594H1270.13L1250.69 216.62H1014.31L1046.53 64.7934H1282.91L1272.78 111.969H1187.06L1190.22 97.3516H1125.27L1106.83 184.063H1171.79L1177.6 157.153H1143.05ZM1031.58 55.325L1034.74 40.707H1305.01L1301.85 55.325H1031.58ZM992.382 240.707L995.372 226.089H1265.47L1262.48 240.707H992.382ZM1415.31 216.62L1369.13 128.082L1350.36 216.62H1264.65L1296.87 64.7934H1382.58L1428.77 153.166L1447.54 64.7934H1533.25L1501.03 216.62H1415.31ZM1281.92 55.325L1285.08 40.707H1555.35L1552.19 55.325H1281.92ZM1242.72 240.707L1245.71 226.089H1515.81L1512.82 240.707H1242.72ZM1537.25 55.325L1540.4 40.707H1560.33L1557.18 55.325H1537.25ZM1498.04 240.707L1501.03 226.089H1520.8L1517.81 240.707H1498.04ZM1547.17 55.325L1550.32 40.707H1570.26L1567.11 55.325H1547.17ZM1507.96 240.707L1510.95 226.089H1530.73L1527.74 240.707H1507.96ZM1557.1 55.325L1560.26 40.707H1580.19L1577.03 55.325H1557.1ZM1517.89 240.707L1520.88 226.089H1540.66L1537.67 240.707H1517.89ZM1567.03 55.325L1570.19 40.707H1590.12L1586.96 55.325H1567.03ZM1527.83 240.707L1530.82 226.089H1550.58L1547.59 240.707H1527.83ZM1576.95 55.325L1580.11 40.707H1600.05L1596.89 55.325H1576.95ZM1537.76 240.707L1540.75 226.089H1560.51L1557.52 240.707H1537.76ZM1586.88 55.325L1590.04 40.707H1609.97L1606.82 55.325H1586.88ZM1547.68 240.707L1550.67 226.089H1570.44L1567.45 240.707H1547.68ZM1596.81 55.325L1599.97 40.707H1619.9L1616.74 55.325H1596.81ZM1557.61 240.707L1560.6 226.089H1580.36L1577.37 240.707H1557.61ZM1606.74 55.325L1609.9 40.707H1629.83L1626.67 55.325H1606.74ZM1567.54 240.707L1570.53 226.089H1590.29L1587.3 240.707H1567.54ZM1616.66 55.325L1619.82 40.707H1639.76L1636.6 55.325H1616.66ZM1577.46 240.707L1580.45 226.089H1600.22L1597.23 240.707H1577.46ZM1626.59 55.325L1629.75 40.707H1649.68L1646.52 55.325H1626.59ZM1587.39 240.707L1590.38 226.089H1610.14L1607.15 240.707H1587.39ZM1636.53 55.325L1639.68 40.707H1659.61L1656.46 55.325H1636.53ZM1597.32 240.707L1600.31 226.089H1620.08L1617.09 240.707H1597.32ZM1624.19 216.62L1656.42 64.7934H1742.13L1709.9 216.62H1624.19ZM1641.47 55.325L1644.62 40.707H1764.22L1761.07 55.325H1641.47ZM1602.26 240.707L1605.25 226.089H1724.69L1721.7 240.707H1602.26ZM1874.52 216.62L1828.35 128.082L1809.57 216.62H1723.86L1756.09 64.7934H1841.8L1887.98 153.166L1906.75 64.7934H1992.46L1960.24 216.62H1874.52ZM1741.14 55.325L1744.29 40.707H2014.56L2011.4 55.325H1741.14ZM1701.93 240.707L1704.92 226.089H1975.02L1972.03 240.707H1701.93ZM2012.9 40.707H2029.35L1986.82 240.707H1970.37L2012.9 40.707Z" fill="#F2AD01"/>
</svg>
